{"title":"Room 205 (2007) [DvdRip] [Xvid] {1337x}-Noir","uid":4442417,"size":741679457,"categoryP":"video","categoryS":"movies","magnet":"?xt=urn:btih:7368d3f282d01a479a3ef3b68fbf32b6a3761641&amp;dn=Room+205+%282007%29+%5BDvdRip%5D+%5BXvid%5D+%7B1337x%7D-Noir&amp;tr=udp%3A%2F%2Ftracker.openbittorrent.com%3A80&amp;tr=udp%3A%2F%2Fopen.demonii.com%3A1337&amp;tr=udp%3A%2F%2Ftracker.coppersurfer.tk%3A6969&amp;tr=udp%3A%2F%2Fexodus.desync.com%3A6969","seeders":1,"leechers":0,"uploader":"INoirI","files":5,"time":1223883797,"description":"                                     Screenshots\n &lt;a href=&quot;\nhttp://i220.photobucket.com/albums/dd94/ItheplagueI/3-16.jpg&quot; rel=&quot;nofollow&quot; target=&quot;_NEW&quot;&gt;\nhttp://i220.photobucket.com/albums/dd94/ItheplagueI/3-16.jpg&lt;/a&gt;\n &lt;a href=&quot;\nhttp://i220.photobucket.com/albums/dd94/ItheplagueI/1-23.jpg&quot; rel=&quot;nofollow&quot; target=&quot;_NEW&quot;&gt;\nhttp://i220.photobucket.com/albums/dd94/ItheplagueI/1-23.jpg&lt;/a&gt;\n &lt;a href=&quot;\nhttp://i220.photobucket.com/albums/dd94/ItheplagueI/2-20.jpg&quot; rel=&quot;nofollow&quot; target=&quot;_NEW&quot;&gt;\nhttp://i220.photobucket.com/albums/dd94/ItheplagueI/2-20.jpg&lt;/a&gt;\n &lt;a href=&quot;\nhttp://i220.photobucket.com/albums/dd94/ItheplagueI/4-16.jpg&quot; rel=&quot;nofollow&quot; target=&quot;_NEW&quot;&gt;\nhttp://i220.photobucket.com/albums/dd94/ItheplagueI/4-16.jpg&lt;/a&gt;\n\n                      *******************\n                      * Room 205 (2007) *\n                      *******************\n\n________________________\n   General Information  |  \n________________________|\n_______________________________________________________________\nType                    : Movie                                \nFormat                  : AVI                                  \nFormat/Info             : Audio Video Interleave               \nFile size               : 703Mb                                \nDuration                : 1h 31mn                              \nLanguage                : English\nSource                  : Dvd NTSC                              \nSubtitles               : English,Spanish                            \nGenre                   : Horror                 \nIMDB Link               : http://www.imdb.com/title/tt1003005/ \nRating                  : 4.3/10                               \n_______________________________________________________________\n________________________________________________________________\nVideo\nFormat                           : MPEG-4 Visual\nFormat profile                   : Streaming Video@L1\nFormat settings, BVOP            : Yes\nFormat settings, QPel            : No\nFormat settings, GMC             : No warppoints\nFormat settings, Matrix          : Default\nMuxing mode                      : Packed bitstream\nCodec ID                         : XVID\nCodec ID/Hint                    : XviD\nDuration                         : 1h 31mn\nBit rate                         : 941 Kbps\nWidth                            : 640 pixels\nHeight                           : 272 pixels\nDisplay aspect ratio             : 2.35\nFrame rate                       : 23.976 fps\nResolution                       : 24 bits\nColorimetry                      : 4:2:0\nScan type                        : Progressive\nBits/(Pixel*Frame)               : 0.225\nStream size                      : 614 MiB (87%)          \n_______________________________________________________________\nAudio\nFormat                           : MPEG Audio\nFormat version                   : Version 1\nFormat profile                   : Layer 3\nCodec ID                         : 55\nCodec ID/Hint                    : MP3\nDuration                         : 1h 31mn\nBit rate mode                    : Constant\nBit rate                         : 128 Kbps\nMinimum bit rate                 : 128 Kbps\nChannel(s)                       : 2 channels\nSampling rate                    : 48.0 KHz\nResolution                       : 16 bits\nStream size                      : 83.5 MiB (12%)\nAlignment                        : Aligned on interleaves\nInterleave, duration             : 42 ms (1.00 video frame)\nInterleave, preload duration     : 504 ms\nWriting library                  : LAME3.98 \nEncoding settings                : CBR                       \n_______________________________________________________________\n________________\n   Description  \n________________\n_______________________________________________________________\nWanting to start a fresh, Katrine moves from the province into \na dormitory in Copenhagen and enrolls at the University. But \nwhen she crosses conniving Sanne by getting together with \nSanne&amp;#039;s ex, all hell breaks loose. Sanne and her friends try \nto bully Katrine out of the dormitory. They frighten her with \nan old myth surrounding the ghost of a former resident. Yet \nthe myth very soon becomes a reality. By accident, Katrine \nsets the ghost free, who then starts a terrifyingly gruesome \nattack on the dormitory&amp;#039;s residents. Only Katrine knows the \nfate of the remaining residents if she doesn&amp;#039;t stop the \nactions of the ghost. However, no one believes Katrine&amp;#039;s \nstory and they accuse her of the series of mysterious \nmurders. She seeks help in the former resident Rolf. \nWhile the residents continue to die around them, Katrine \nand Rolf embark on a desperate struggle to stop the ghost \nbefore it kills those that are left..          \n_______________________________________________________________\n\n___________________\nNotes              \n___________________\n_______________________________________________________________\nBe aware People are starting to use my tag to create fake files\nMake sure its a real genuine release from me, I have never and \nwill never do Cams,Telesyncs,Telecine or RAR files.Try to check \n1337x.org to see if the file exist.\n \nFuck the fakers and enjoy my release.                   \n_______________________________________________________________\n___________________\n  Post Information \n___________________\n_________________________________\nPosted by............: Noir     \nPosted on............: 10/12/2008\n_________________________________","torrent":{"xt":"urn:btih:7368d3f282d01a479a3ef3b68fbf32b6a3761641","amp;dn":"Room+205+%282007%29+%5BDvdRip%5D+%5BXvid%5D+%7B1337x%7D-Noir","amp;tr":["udp%3A%2F%2Ftracker.openbittorrent.com%3A80","udp%3A%2F%2Fopen.demonii.com%3A1337","udp%3A%2F%2Ftracker.coppersurfer.tk%3A6969","udp%3A%2F%2Fexodus.desync.com%3A6969"],"infoHash":"7368d3f282d01a479a3ef3b68fbf32b6a3761641","infoHashBuffer":{"type":"Buffer","data":[115,104,211,242,130,208,26,71,154,62,243,182,143,191,50,182,163,118,22,65]},"announce":[],"urlList":[]}}